# xmcd
#
# Track frame offsets: 
#        150
#        20442
#        51282
#        69490
#        91547
#        102175
#        118157
#        137240
#        164747
#        207745
#        228052
#        258897
#
# Disc length: 3662 seconds
#
# Revision: 1
# Processed by: cddbd v1.5.2PL0 Copyright (c) Steve Scherf et al.
# Submitted via: ExactAudioCopy v0.95b4
#
DISCID=a40e4c0c
DTITLE=趙一豪 - 把我自己收回來
DYEAR=1900
DGENRE=Post Punk
TTITLE0=這幾天
TTITLE1=把我自己收回來
TTITLE2=爸爸媽媽這是什麼地方
TTITLE3=過程
TTITLE4=誕生
TTITLE5=創造
TTITLE6=電視低能兒
TTITLE7=溫哥華的冬天
TTITLE8=死亡
TTITLE9=改變
TTITLE10=把我自己掏出來
TTITLE11=震動
EXTD=
EXTT0=
EXTT1=
EXTT2=
EXTT3=
EXTT4=
EXTT5=
EXTT6=
EXTT7=
EXTT8=
EXTT9=
EXTT10=
EXTT11=
PLAYORDER=
